STARTFONT 2.1
FONT -FontForge-04b30-Book-R-Normal--17-120-100-100-P-135-ISO10646-1
SIZE 12 100 100
FONTBOUNDINGBOX 16 17 0 -2
COMMENT "Generated by fontforge, http://fontforge.sourceforge.net"
COMMENT "2000-2003 / yuji oshimoo / 04@dsg4.com / www.04.jp.org"
STARTPROPERTIES 39
FOUNDRY "FontForge"
FAMILY_NAME "04b30"
WEIGHT_NAME "Book"
SLANT "R"
SETWIDTH_NAME "Normal"
ADD_STYLE_NAME ""
PIXEL_SIZE 17
POINT_SIZE 120
RESOLUTION_X 100
RESOLUTION_Y 100
SPACING "P"
AVERAGE_WIDTH 135
CHARSET_REGISTRY "ISO10646"
CHARSET_ENCODING "1"
FONTNAME_REGISTRY ""
CHARSET_COLLECTIONS "ISO10646-1"
FONT_NAME "04b30"
FACE_NAME "04b30"
COPYRIGHT "2000-2003 / yuji oshimoo / 04@dsg4.com / www.04.jp.org"
FONT_VERSION "Macromedia Fonographer 4.1J 03.3.25"
FONT_ASCENT 15
FONT_DESCENT 2
UNDERLINE_POSITION -2
UNDERLINE_THICKNESS 1
X_HEIGHT 11
CAP_HEIGHT 13
RAW_ASCENT 882
RAW_DESCENT 117
NORM_SPACE 14
RELATIVE_WEIGHT 40
RELATIVE_SETWIDTH 50
SUPERSCRIPT_X 0
SUPERSCRIPT_Y 7
SUPERSCRIPT_SIZE 11
SUBSCRIPT_X 0
SUBSCRIPT_Y 2
SUBSCRIPT_SIZE 11
AVG_LOWERCASE_WIDTH 138
AVG_UPPERCASE_WIDTH 157
ENDPROPERTIES
CHARS 101
STARTCHAR space
ENCODING 32
SWIDTH 823 0
DWIDTH 14 0
BBX 1 1 0 0
BITMAP
00
ENDCHAR
STARTCHAR exclam
ENCODING 33
SWIDTH 529 0
DWIDTH 9 0
BBX 7 14 1 0
BITMAP
7C
8E
BE
FE
7C
7C
38
38
00
38
7C
7C
7C
38
ENDCHAR
STARTCHAR quotedbl
ENCODING 34
SWIDTH 823 0
DWIDTH 14 0
BBX 12 7 1 6
BITMAP
70E0
B970
B970
B970
F9F0
F9F0
70E0
ENDCHAR
STARTCHAR numbersign
ENCODING 35
SWIDTH 941 0
DWIDTH 16 0
BBX 14 14 1 0
BITMAP
1CE0
2EF0
2EF0
7EF8
FFFC
7FF8
7FF8
7FF8
7FF8
FFFC
7EF8
3EF0
3EF0
1CE0
ENDCHAR
STARTCHAR dollar
ENCODING 36
SWIDTH 823 0
DWIDTH 14 0
BBX 1 1 0 0
BITMAP
00
ENDCHAR
STARTCHAR percent
ENCODING 37
SWIDTH 941 0
DWIDTH 16 0
BBX 14 14 1 0
BITMAP
7038
B87C
B8FC
F9FC
73F8
73F8
0FE0
3FC0
3F80
7F38
FF7C
FC7C
F87C
7038
ENDCHAR
STARTCHAR ampersand
ENCODING 38
SWIDTH 823 0
DWIDTH 14 0
BBX 1 1 0 0
BITMAP
00
ENDCHAR
STARTCHAR quotesingle
ENCODING 39
SWIDTH 411 0
DWIDTH 7 0
BBX 5 7 1 6
BITMAP
70
B8
B8
B8
F8
F8
70
ENDCHAR
STARTCHAR parenleft
ENCODING 40
SWIDTH 588 0
DWIDTH 10 0
BBX 8 14 1 0
BITMAP
0E
07
2F
7E
7C
7C
F8
F8
F8
7C
7E
7F
1F
0E
ENDCHAR
STARTCHAR parenright
ENCODING 41
SWIDTH 588 0
DWIDTH 10 0
BBX 7 14 1 0
BITMAP
70
B8
B8
7E
3E
3E
3E
3E
3E
3E
B8
F8
F8
70
ENDCHAR
STARTCHAR asterisk
ENCODING 42
SWIDTH 529 0
DWIDTH 9 0
BBX 7 7 1 7
BITMAP
7C
8E
BE
BE
FE
FE
7C
ENDCHAR
STARTCHAR plus
ENCODING 43
SWIDTH 941 0
DWIDTH 16 0
BBX 14 14 1 0
BITMAP
0700
09C0
09C0
0FC0
7FF8
FFFC
FFFC
FFFC
7FF8
0FC0
0FC0
0FC0
0FC0
0700
ENDCHAR
STARTCHAR comma
ENCODING 44
SWIDTH 411 0
DWIDTH 7 0
BBX 5 7 1 -1
BITMAP
70
B8
B8
B8
F8
F8
70
ENDCHAR
STARTCHAR hyphen
ENCODING 45
SWIDTH 823 0
DWIDTH 14 0
BBX 12 5 1 4
BITMAP
7FE0
9FF0
FFF0
FFF0
7FE0
ENDCHAR
STARTCHAR period
ENCODING 46
SWIDTH 411 0
DWIDTH 7 0
BBX 5 5 1 1
BITMAP
70
B8
F8
F8
70
ENDCHAR
STARTCHAR slash
ENCODING 47
SWIDTH 941 0
DWIDTH 16 0
BBX 14 14 1 0
BITMAP
0038
007C
00FC
01FC
03F8
07F0
0FE0
1FC0
3F80
7F00
FE00
FC00
F800
7000
ENDCHAR
STARTCHAR zero
ENCODING 48
SWIDTH 941 0
DWIDTH 16 0
BBX 14 14 1 0
BITMAP
3FF0
1FF8
BFFC
FE3C
FE3C
FE3C
FE3C
FE3C
FE3C
FE3C
FFFC
FFFC
7FF8
3FF0
ENDCHAR
STARTCHAR one
ENCODING 49
SWIDTH 647 0
DWIDTH 11 0
BBX 9 14 1 0
BITMAP
7F00
9F80
BF80
7F80
3F80
3F80
3F80
3F80
3F80
3F80
3F80
3F80
3F80
1F00
ENDCHAR
STARTCHAR two
ENCODING 50
SWIDTH 941 0
DWIDTH 16 0
BBX 14 14 1 0
BITMAP
7FF0
9FF8
BFFC
7FFC
007C
7FF8
7FF8
FFF0
FE00
FFF8
FFFC
FFFC
FFFC
7FF8
ENDCHAR
STARTCHAR three
ENCODING 51
SWIDTH 941 0
DWIDTH 16 0
BBX 14 14 1 0
BITMAP
3FF0
1FF8
BFFC
7FFC
003C
3FFC
7FFC
3FFC
003C
7FFC
FFFC
FFFC
7FF8
3FF0
ENDCHAR
STARTCHAR four
ENCODING 52
SWIDTH 941 0
DWIDTH 16 0
BBX 14 14 1 0
BITMAP
70E0
9DF0
9DF0
FDF0
FDF0
FDF0
FDF0
FDF4
FFFC
7FFC
1FF8
01F0
01F0
00E0
ENDCHAR
STARTCHAR five
ENCODING 53
SWIDTH 941 0
DWIDTH 16 0
BBX 14 14 1 0
BITMAP
7FF8
9FFC
BFFC
BE04
FE00
FFF0
FFF8
7FFC
007C
7FFC
FFFC
FFFC
FFF8
7FF0
ENDCHAR
STARTCHAR six
ENCODING 54
SWIDTH 941 0
DWIDTH 16 0
BBX 14 14 1 0
BITMAP
3FF0
1FF8
BFF0
FE00
FE00
FE00
FFF0
FE3C
FE3C
FE3C
FFFC
FFFC
7FF8
3FF0
ENDCHAR
STARTCHAR seven
ENCODING 55
SWIDTH 941 0
DWIDTH 16 0
BBX 14 14 1 0
BITMAP
7FF8
9FFC
BFFC
7FFC
03F8
03F8
07F8
07E0
0FC0
0FC0
0FC0
0FC0
0FC0
0700
ENDCHAR
STARTCHAR eight
ENCODING 56
SWIDTH 941 0
DWIDTH 16 0
BBX 14 14 1 0
BITMAP
3FF0
1FF8
BFFC
FE3C
FE3C
FE3C
7FF8
FE3C
FE3C
FE3C
FFFC
FFFC
7FF8
3FF0
ENDCHAR
STARTCHAR nine
ENCODING 57
SWIDTH 941 0
DWIDTH 16 0
BBX 14 14 1 0
BITMAP
3FF0
1FF8
BFFC
FE3C
FE3C
FE3C
7FFC
3FF8
01F8
03F0
03F0
1F80
1F80
0F00
ENDCHAR
STARTCHAR colon
ENCODING 58
SWIDTH 411 0
DWIDTH 7 0
BBX 5 12 1 1
BITMAP
70
B8
F8
F8
70
00
00
70
F8
F8
F8
70
ENDCHAR
STARTCHAR semicolon
ENCODING 59
SWIDTH 411 0
DWIDTH 7 0
BBX 5 14 1 -1
BITMAP
70
B8
F8
F8
70
00
00
70
F8
F8
F8
F8
F8
70
ENDCHAR
STARTCHAR less
ENCODING 60
SWIDTH 647 0
DWIDTH 11 0
BBX 9 14 1 0
BITMAP
0700
0380
1780
5680
7E00
7A00
F800
F800
FC00
7E00
5E80
1F80
0F80
0700
ENDCHAR
STARTCHAR equal
ENCODING 61
SWIDTH 823 0
DWIDTH 14 0
BBX 12 12 1 1
BITMAP
7FE0
9FF0
FFF0
FFF0
7FE0
0000
0000
7FE0
FFF0
FFF0
FFF0
7FE0
ENDCHAR
STARTCHAR greater
ENCODING 62
SWIDTH 647 0
DWIDTH 11 0
BBX 9 14 1 0
BITMAP
7000
9C00
BE00
7F80
3F00
1F80
0F80
0F80
1F80
7F00
FE00
FE00
FC00
7000
ENDCHAR
STARTCHAR question
ENCODING 63
SWIDTH 941 0
DWIDTH 16 0
BBX 14 14 1 0
BITMAP
7FF0
9FF8
BFFC
7FFC
007C
07FC
0FF8
07F0
0000
0700
0F80
0F80
0F80
0700
ENDCHAR
STARTCHAR at
ENCODING 64
SWIDTH 823 0
DWIDTH 14 0
BBX 1 1 0 0
BITMAP
00
ENDCHAR
STARTCHAR A
ENCODING 65
SWIDTH 941 0
DWIDTH 16 0
BBX 14 14 1 0
BITMAP
3FE0
1FF0
BFF8
FE3C
FE3C
FE3C
FFFC
FE3C
FE3C
FE3C
FE3C
FE3C
FE3C
7C18
ENDCHAR
STARTCHAR B
ENCODING 66
SWIDTH 941 0
DWIDTH 16 0
BBX 14 14 1 0
BITMAP
7FF0
9FF8
BFFC
FE1C
FE1C
FFF8
FFF8
FFFC
FE1C
FE1C
FE1C
FFFC
FFF8
7FF0
ENDCHAR
STARTCHAR C
ENCODING 67
SWIDTH 941 0
DWIDTH 16 0
BBX 14 14 1 0
BITMAP
3FF8
1FFC
BFF8
FE00
FE00
FE00
FE00
FE00
FE00
FE00
FFF8
FFFC
7FFC
3FF8
ENDCHAR
STARTCHAR D
ENCODING 68
SWIDTH 941 0
DWIDTH 16 0
BBX 14 14 1 0
BITMAP
7FE0
9FF0
BFF8
FE1C
FE1C
FE1C
FE1C
FE1C
FE1C
FE7C
FE7C
FFFC
FFF8
7FF0
ENDCHAR
STARTCHAR E
ENCODING 69
SWIDTH 941 0
DWIDTH 16 0
BBX 14 14 1 0
BITMAP
7FF8
9FFC
BFF8
FE00
FE00
FFF8
FFFC
FFF8
FE00
FE00
FE04
FFFC
FFFC
7FF8
ENDCHAR
STARTCHAR F
ENCODING 70
SWIDTH 941 0
DWIDTH 16 0
BBX 14 14 1 0
BITMAP
7FF8
9FFC
BFF8
FE00
FE00
FFF8
FFFC
FFF8
FE00
FE00
FE00
FE00
FE00
7C00
ENDCHAR
STARTCHAR G
ENCODING 71
SWIDTH 941 0
DWIDTH 16 0
BBX 14 14 1 0
BITMAP
3FF8
1FFC
BFF8
FE00
FE00
FE00
FEFC
FE3C
FE3C
FE3C
FFFC
FFFC
7FF8
3FF0
ENDCHAR
STARTCHAR H
ENCODING 72
SWIDTH 941 0
DWIDTH 16 0
BBX 14 14 1 0
BITMAP
7C38
8E7C
BE7C
FE7C
FE7C
FFFC
FFFC
FFFC
FE7C
FE7C
FE7C
FE7C
FE7C
7C38
ENDCHAR
STARTCHAR I
ENCODING 73
SWIDTH 529 0
DWIDTH 9 0
BBX 7 14 1 0
BITMAP
7C
8E
BE
FE
FE
FE
FE
FE
FE
FE
FE
FE
FE
7C
ENDCHAR
STARTCHAR J
ENCODING 74
SWIDTH 941 0
DWIDTH 16 0
BBX 14 14 1 0
BITMAP
00F8
011C
017C
01FC
01FC
01FC
71FC
F9FC
F9FC
F9FC
F9FC
FFFC
7FF8
3FF0
ENDCHAR
STARTCHAR K
ENCODING 75
SWIDTH 941 0
DWIDTH 16 0
BBX 14 14 1 0
BITMAP
7C38
8E7C
BE7C
FEFC
FFF8
FFF0
FFC0
FFF0
FFF8
FFF8
FEFC
FE7C
FE7C
7C38
ENDCHAR
STARTCHAR L
ENCODING 76
SWIDTH 882 0
DWIDTH 15 0
BBX 13 14 1 0
BITMAP
7C00
8E00
BE00
FE00
FE00
FE00
FE00
FE00
FE00
FFF0
FFF8
FFF8
FFF8
7FF0
ENDCHAR
STARTCHAR M
ENCODING 77
SWIDTH 1000 0
DWIDTH 17 0
BBX 15 14 1 0
BITMAP
7C1C
8E3E
BE3E
FE3E
FE3E
FF7E
FFFE
FFFE
FFFE
FFFE
FEBE
FE3E
FE3E
7C1C
ENDCHAR
STARTCHAR N
ENCODING 78
SWIDTH 941 0
DWIDTH 16 0
BBX 14 14 1 0
BITMAP
7C38
8E7C
BE7C
FE7C
FE7C
FF7C
FF7C
FFFC
FEFC
FEFC
FE7C
FE7C
FE7C
7C38
ENDCHAR
STARTCHAR O
ENCODING 79
SWIDTH 941 0
DWIDTH 16 0
BBX 14 14 1 0
BITMAP
3FF0
1FF8
BFFC
FE3C
FE3C
FE3C
FE3C
FE3C
FE3C
FE3C
FFFC
FFFC
7FF8
3FF0
ENDCHAR
STARTCHAR P
ENCODING 80
SWIDTH 941 0
DWIDTH 16 0
BBX 14 14 1 0
BITMAP
7FF0
9FF8
BFFC
FE7C
FE7C
FE7C
FE7C
FFFC
FFF8
FFF0
FE00
FE00
FE00
7C00
ENDCHAR
STARTCHAR Q
ENCODING 81
SWIDTH 941 0
DWIDTH 16 0
BBX 14 16 1 -2
BITMAP
3FF0
1FF8
BFFC
FE3C
FE3C
FE3C
FE3C
FE3C
FE3C
FE3C
FFFC
FFFC
7FF8
3FF0
01F0
00F0
ENDCHAR
STARTCHAR R
ENCODING 82
SWIDTH 941 0
DWIDTH 16 0
BBX 14 14 1 0
BITMAP
7FF0
9FF8
BFFC
FE7C
FE7C
FFF8
FFF8
FFF0
FFF8
FFF8
FEFC
FE7C
FE7C
7C38
ENDCHAR
STARTCHAR S
ENCODING 83
SWIDTH 941 0
DWIDTH 16 0
BBX 14 14 1 0
BITMAP
3FF8
1FFC
BFFC
FFF8
FE00
FFF8
FFFC
7FFC
007C
7FFC
FFFC
FFFC
FFF8
7FF0
ENDCHAR
STARTCHAR T
ENCODING 84
SWIDTH 941 0
DWIDTH 16 0
BBX 14 14 1 0
BITMAP
7FF8
9FFC
BFFC
7FF8
0FC0
0FC0
0FC0
0FC0
0FC0
0FC0
0FC0
0FC0
0FC0
0380
ENDCHAR
STARTCHAR U
ENCODING 85
SWIDTH 941 0
DWIDTH 16 0
BBX 14 14 1 0
BITMAP
7C38
8E7C
BE7C
FE7C
FE7C
FE7C
FE7C
FE7C
FE7C
FE7C
FE7C
FFFC
7FF8
3FF0
ENDCHAR
STARTCHAR V
ENCODING 86
SWIDTH 941 0
DWIDTH 16 0
BBX 14 14 1 0
BITMAP
7C38
8E7C
BE7C
FE7C
FE7C
FE7C
FE7C
FEFC
FFF8
FFF0
FFE0
FFC0
7F80
3F00
ENDCHAR
STARTCHAR W
ENCODING 87
SWIDTH 1000 0
DWIDTH 17 0
BBX 15 14 1 0
BITMAP
7C1C
8E3E
BE3E
FE3E
FE3E
FE3E
FEBE
FFFE
FFFE
FFFE
FFFE
FF7E
FE3E
7C1C
ENDCHAR
STARTCHAR X
ENCODING 88
SWIDTH 941 0
DWIDTH 16 0
BBX 14 14 1 0
BITMAP
7038
9C7C
B8FC
FFFC
7FF8
5FE8
1FE0
1FE0
3FF0
7FF8
FFFC
F8FC
FC7C
7038
ENDCHAR
STARTCHAR Y
ENCODING 89
SWIDTH 941 0
DWIDTH 16 0
BBX 14 14 1 0
BITMAP
7038
9CFC
BFFC
FFFC
7FF8
7FF8
3FF0
0FC0
0FC0
0FC0
0FC0
0FC0
0FC0
0FC0
ENDCHAR
STARTCHAR Z
ENCODING 90
SWIDTH 941 0
DWIDTH 16 0
BBX 14 14 1 0
BITMAP
7FF8
9FFC
BFFC
7FFC
03F8
07F0
0FF0
1FC0
3F80
7FF8
FFFC
FFFC
FFFC
7FF8
ENDCHAR
STARTCHAR bracketleft
ENCODING 91
SWIDTH 529 0
DWIDTH 9 0
BBX 7 14 1 0
BITMAP
1C
0E
9E
9E
FC
F8
F8
F8
F8
F8
FA
FE
7E
1C
ENDCHAR
STARTCHAR backslash
ENCODING 92
SWIDTH 941 0
DWIDTH 16 0
BBX 14 14 1 0
BITMAP
7000
9C00
BC00
FE00
7F00
7F00
3FC0
0FE0
03F0
01F8
01FC
00FC
007C
0038
ENDCHAR
STARTCHAR bracketright
ENCODING 93
SWIDTH 529 0
DWIDTH 9 0
BBX 7 14 1 0
BITMAP
70
9C
BE
7E
3E
3E
3E
3E
3E
3E
BE
FE
FC
70
ENDCHAR
STARTCHAR asciicircum
ENCODING 94
SWIDTH 588 0
DWIDTH 10 0
BBX 8 5 1 8
BITMAP
7E
9F
FF
FF
7E
ENDCHAR
STARTCHAR underscore
ENCODING 95
SWIDTH 941 0
DWIDTH 16 0
BBX 14 5 1 0
BITMAP
7FF8
9FFC
FFFC
FFFC
7FF8
ENDCHAR
STARTCHAR grave
ENCODING 96
SWIDTH 588 0
DWIDTH 10 0
BBX 8 5 1 8
BITMAP
7E
9F
FF
FF
7E
ENDCHAR
STARTCHAR a
ENCODING 97
SWIDTH 823 0
DWIDTH 14 0
BBX 12 12 1 0
BITMAP
3FC0
1FE0
BFF0
FC70
FFF0
FFF0
FFF0
FC70
FC70
FC70
FC70
7820
ENDCHAR
STARTCHAR b
ENCODING 98
SWIDTH 823 0
DWIDTH 14 0
BBX 12 12 1 0
BITMAP
7FC0
9FE0
BFF0
FC70
FFF0
FFE0
FFE0
FC70
FC70
FFF0
FFE0
7FC0
ENDCHAR
STARTCHAR c
ENCODING 99
SWIDTH 823 0
DWIDTH 14 0
BBX 12 12 1 0
BITMAP
3FE0
1FF0
BFE0
FC00
FC00
FC00
FC00
FC00
FFE0
FFF0
7FF0
3FE0
ENDCHAR
STARTCHAR d
ENCODING 100
SWIDTH 823 0
DWIDTH 14 0
BBX 12 12 1 0
BITMAP
7F80
9FC0
BFE0
FC70
FC70
FC70
FC70
FC70
FC70
FFF0
FFE0
7FC0
ENDCHAR
STARTCHAR e
ENCODING 101
SWIDTH 823 0
DWIDTH 14 0
BBX 12 12 1 0
BITMAP
7FE0
9FF0
BFE0
FC00
FFE0
FFF0
FFE0
FFE0
FFF0
FFF0
FFF0
7FE0
ENDCHAR
STARTCHAR f
ENCODING 102
SWIDTH 823 0
DWIDTH 14 0
BBX 12 12 1 0
BITMAP
7FE0
9FF0
BFE0
FC00
FFE0
FFF0
FFE0
FC00
FC00
FC00
FC00
7000
ENDCHAR
STARTCHAR g
ENCODING 103
SWIDTH 823 0
DWIDTH 14 0
BBX 12 12 1 0
BITMAP
3FE0
1FF0
BFE0
FC00
FC60
FDE0
FC70
FC70
FFF0
FFF0
7FE0
3FC0
ENDCHAR
STARTCHAR h
ENCODING 104
SWIDTH 823 0
DWIDTH 14 0
BBX 12 12 1 0
BITMAP
70E0
9C70
9C70
FC70
FFF0
FFF0
FFF0
FC70
FC70
FC70
FC70
70E0
ENDCHAR
STARTCHAR i
ENCODING 105
SWIDTH 470 0
DWIDTH 8 0
BBX 6 12 1 0
BITMAP
70
9C
9C
FC
FC
FC
FC
FC
FC
FC
FC
70
ENDCHAR
STARTCHAR j
ENCODING 106
SWIDTH 823 0
DWIDTH 14 0
BBX 12 12 1 0
BITMAP
01C0
0270
0270
03F0
03F0
73F0
73F0
FBF0
FBF0
FFF0
7FC0
3FC0
ENDCHAR
STARTCHAR k
ENCODING 107
SWIDTH 823 0
DWIDTH 14 0
BBX 12 12 1 0
BITMAP
70E0
9DF0
9DF0
9DF0
FFE0
FF00
FFC0
FFE0
FFF0
FDF0
FDF0
70E0
ENDCHAR
STARTCHAR l
ENCODING 108
SWIDTH 764 0
DWIDTH 13 0
BBX 11 12 1 0
BITMAP
7000
9C00
9C00
FC00
FC00
FC00
FC00
FC00
FC20
FFE0
FFE0
7FC0
ENDCHAR
STARTCHAR m
ENCODING 109
SWIDTH 882 0
DWIDTH 15 0
BBX 13 12 1 0
BITMAP
7070
9C38
9C38
FEF8
FFF8
FFF8
FD38
FC38
FC38
FC38
FC38
7070
ENDCHAR
STARTCHAR n
ENCODING 110
SWIDTH 823 0
DWIDTH 14 0
BBX 12 12 1 0
BITMAP
70E0
9DF0
9DF0
FFF0
FFF0
FFF0
FDF0
FDF0
FDF0
FDF0
FDF0
70E0
ENDCHAR
STARTCHAR o
ENCODING 111
SWIDTH 823 0
DWIDTH 14 0
BBX 12 12 1 0
BITMAP
3FC0
1FE0
BFF0
FC70
FC70
FC70
FC70
FC70
FFF0
FFF0
7FE0
3FC0
ENDCHAR
STARTCHAR p
ENCODING 112
SWIDTH 823 0
DWIDTH 14 0
BBX 12 12 1 0
BITMAP
7FC0
9FE0
BFF0
FC70
FC70
FFE0
FFE0
FFC0
FC00
FC00
FC00
7000
ENDCHAR
STARTCHAR q
ENCODING 113
SWIDTH 823 0
DWIDTH 14 0
BBX 12 14 1 -2
BITMAP
3FC0
1FE0
BFF0
FC70
FC70
FC70
FC70
FC70
FFF0
FFF0
7FE0
3FC0
03C0
01C0
ENDCHAR
STARTCHAR r
ENCODING 114
SWIDTH 823 0
DWIDTH 14 0
BBX 12 12 1 0
BITMAP
7FC0
9FE0
BFF0
FC70
FC70
FFE0
FFC0
FFE0
FDF0
FDF0
FC70
7020
ENDCHAR
STARTCHAR s
ENCODING 115
SWIDTH 823 0
DWIDTH 14 0
BBX 12 12 1 0
BITMAP
3FE0
1FF0
BFE0
FC00
FFE0
7FF0
00F0
7FF0
FFF0
FFF0
FFE0
7FC0
ENDCHAR
STARTCHAR t
ENCODING 116
SWIDTH 823 0
DWIDTH 14 0
BBX 12 12 1 0
BITMAP
7FE0
BFF0
BFF0
7FE0
1F80
1F80
1F80
1F80
1F80
1F80
1F80
0E00
ENDCHAR
STARTCHAR u
ENCODING 117
SWIDTH 823 0
DWIDTH 14 0
BBX 12 12 1 0
BITMAP
70E0
9C70
9C70
FC70
FC70
FC70
FC70
FC70
FC70
FFF0
7FE0
1FC0
ENDCHAR
STARTCHAR v
ENCODING 118
SWIDTH 823 0
DWIDTH 14 0
BBX 12 12 1 0
BITMAP
70E0
9CF0
BCF0
FCF0
FCF0
FCF0
FDF0
FFE0
FFC0
FF00
7E00
3E00
ENDCHAR
STARTCHAR w
ENCODING 119
SWIDTH 882 0
DWIDTH 15 0
BBX 13 12 1 0
BITMAP
7070
9C38
9C38
FC38
FC38
FC38
FD38
FFF8
FFF8
FEF8
FC38
7070
ENDCHAR
STARTCHAR x
ENCODING 120
SWIDTH 823 0
DWIDTH 14 0
BBX 12 12 1 0
BITMAP
60E0
91F0
BBF0
FFE0
7FC0
7FC0
1F00
3FE0
FDF0
FDF0
F8F0
70E0
ENDCHAR
STARTCHAR y
ENCODING 121
SWIDTH 823 0
DWIDTH 14 0
BBX 12 12 1 0
BITMAP
70E0
B9F0
BFF0
7FE0
3FC0
3F80
0F80
0F80
0F80
0F80
0F80
0700
ENDCHAR
STARTCHAR z
ENCODING 122
SWIDTH 823 0
DWIDTH 14 0
BBX 12 12 1 0
BITMAP
7FE0
BFF0
BFF0
7FE0
07C0
0F80
1F80
3FE0
FFF0
FFF0
FFF0
7FE0
ENDCHAR
STARTCHAR braceleft
ENCODING 123
SWIDTH 647 0
DWIDTH 11 0
BBX 9 14 1 0
BITMAP
0F00
0780
2F80
3F00
3E00
7E00
FE00
FE00
7E00
3E00
3F00
3F80
1F80
0F00
ENDCHAR
STARTCHAR bar
ENCODING 124
SWIDTH 529 0
DWIDTH 9 0
BBX 7 14 1 0
BITMAP
7C
8E
BE
FE
FE
FE
FE
FE
FE
FE
FE
FE
FE
7C
ENDCHAR
STARTCHAR braceright
ENCODING 125
SWIDTH 647 0
DWIDTH 11 0
BBX 9 14 1 0
BITMAP
7000
9C00
BE00
7E00
3E00
3F00
3F80
3F80
3F80
3F00
BE00
FE00
FC00
7000
ENDCHAR
STARTCHAR asciitilde
ENCODING 126
SWIDTH 588 0
DWIDTH 10 0
BBX 8 5 1 8
BITMAP
7E
9F
FF
FF
7E
ENDCHAR
STARTCHAR nonbreakingspace
ENCODING 160
SWIDTH 833 0
DWIDTH 14 0
BBX 1 1 0 0
BITMAP
00
ENDCHAR
STARTCHAR hyphen.dup1
ENCODING 8208
SWIDTH 823 0
DWIDTH 14 0
BBX 12 5 1 4
BITMAP
7FE0
9FF0
FFF0
FFF0
7FE0
ENDCHAR
STARTCHAR .notdef
ENCODING -1
SWIDTH 500 0
DWIDTH 9 0
BBX 6 15 1 0
BITMAP
FC
84
84
84
84
84
84
84
84
84
84
84
84
84
FC
ENDCHAR
STARTCHAR .null
ENCODING -1
SWIDTH 0 0
DWIDTH 0 0
BBX 1 1 0 0
BITMAP
00
ENDCHAR
STARTCHAR nonmarkingreturn
ENCODING -1
SWIDTH 823 0
DWIDTH 14 0
BBX 1 1 0 0
BITMAP
00
ENDCHAR
STARTCHAR DEL
ENCODING -1
SWIDTH 823 0
DWIDTH 14 0
BBX 1 1 0 0
BITMAP
00
ENDCHAR
ENDFONT
